<svg xmlns="http://www.w3.org/2000/svg" viewBox="0 0 876.59 1080"><defs><style>.b629dbdc-1b6d-401e-96ef-779520c9d0b1{fill:#ff4f26;}.f2bf52bf-05f8-480c-9433-d8d3042101ae{fill:#050039;}</style></defs><g id="a4c06e97-eec1-4d45-a3ad-d8fc6f58b454" data-name="Capa 2"><g id="a13c7dc5-d5fa-464b-af2b-911c503987f2" data-name="Capa 2"><path class="b629dbdc-1b6d-401e-96ef-779520c9d0b1" d="M0,936.49l21.33-48.28c18.53,10.95,43.22,18,64.84,18,18.8,0,25.55-3.94,25.55-10.67,0-24.7-108.64-4.77-108.64-78,0-36.5,30.6-66.25,91.51-66.25,26.39,0,53.62,5.61,74.11,17.13l-19.93,48c-19.37-9.83-37.62-14.61-54.74-14.61-19.37,0-25.54,5.62-25.54,12.36,0,23.57,108.63,3.93,108.63,76.35,0,35.93-30.6,66.24-91.51,66.24C52.77,956.7,19.64,948.56,0,936.49Z"/><polygon class="f2bf52bf-05f8-480c-9433-d8d3042101ae" points="522.92 755.72 482.5 823.65 442.36 755.72 398.57 755.72 372.47 755.72 326.44 755.72 261.88 827.02 261.88 755.72 196.76 755.72 196.76 952.21 261.88 952.21 261.88 903.65 276.76 887.09 325.88 952.21 402.51 952.21 319.99 842.18 382.81 773.07 446.57 880.07 446.57 952.21 512.81 952.21 512.81 880.92 586.92 755.72 522.92 755.72"/><path class="b629dbdc-1b6d-401e-96ef-779520c9d0b1" d="M691.9,755.72V952.21H625.66V805.69H592v-50Z"/><path class="b629dbdc-1b6d-401e-96ef-779520c9d0b1" d="M876.59,887.65c0,35.09-27,69.05-89.82,69.05-26.95,0-56.42-5.89-77.47-17.68l22.45-48.85a106.5,106.5,0,0,0,52.49,14.32c14.88,0,25.83-5.33,25.83-15.44,0-8.42-5.9-14-29.75-14h-57l9.82-119.3H863.68v50H787.61l-1.4,19.37h10.1C854.42,825.06,876.59,852.84,876.59,887.65Z"/><path class="f2bf52bf-05f8-480c-9433-d8d3042101ae" d="M83.4,1078.73H77.85l21.47-49.68h4.91l21.34,49.68H120l-5.48-13H88.8Zm7.29-17.68h21.9l-11-26.39Z"/><path class="f2bf52bf-05f8-480c-9433-d8d3042101ae" d="M146.9,1029.05h14c10.11,0,16.77,4.35,16.77,13.27s-6.8,13.33-16.91,13.33H152v23.08H146.9Zm5.06,22.32h8.56c7.86,0,12.14-3.16,12.14-9,0-6.11-4.49-8.92-12.14-8.92H152Z"/><path class="f2bf52bf-05f8-480c-9433-d8d3042101ae" d="M197.08,1078.73h-5.55L213,1029.05h4.91l21.33,49.68h-5.61l-5.47-13H202.48Zm7.29-17.68h21.9l-11-26.39Z"/><path class="f2bf52bf-05f8-480c-9433-d8d3042101ae" d="M265.63,1078.73h-5.05v-49.68h14.59c9.83,0,17,3.58,17,13.27,0,7.36-5.47,12-12.7,12.77L294,1078.73h-6.17l-13.76-23.22h-8.42Zm0-27.58h8.77c8.07,0,12.71-2.94,12.71-8.83,0-6.53-5-8.92-12.49-8.92h-9Z"/><path class="f2bf52bf-05f8-480c-9433-d8d3042101ae" d="M331.74,1078.73h-5.05v-45.19H310.05v-4.49h38.32v4.49H331.74Z"/><path class="f2bf52bf-05f8-480c-9433-d8d3042101ae" d="M365.28,1078.73h-5.54l21.46-49.68h4.91l21.34,49.68h-5.61l-5.48-13H370.68Zm7.29-17.68h21.9l-11-26.39Z"/><path class="f2bf52bf-05f8-480c-9433-d8d3042101ae" d="M453.34,1070.17h.07L470,1029.05h7.72v49.68h-5.05v-43.15h-.14l-18,43.15h-2.67l-18-43.15h-.14v43.15h-5.05v-49.68h7.71Z"/><path class="f2bf52bf-05f8-480c-9433-d8d3042101ae" d="M510.05,1074.24h26.59v4.49H505v-49.68H535.8v4.49H510.05v17.13h24.06v4.42H510.05Z"/><path class="f2bf52bf-05f8-480c-9433-d8d3042101ae" d="M595.79,1071.37h.14v-42.32H601v49.68h-6.31L565.75,1036h-.13v42.73h-5.06v-49.68h6.31Z"/><path class="f2bf52bf-05f8-480c-9433-d8d3042101ae" d="M644.14,1078.73h-5v-45.19H622.45v-4.49h38.32v4.49H644.14Z"/><path class="f2bf52bf-05f8-480c-9433-d8d3042101ae" d="M703.36,1080c-14.8,0-25.89-11-25.89-26.11s11.09-26.1,25.89-26.1,25.9,11,25.9,26.1S718.17,1080,703.36,1080Zm0-47.79c-12.77,0-20.55,10.11-20.55,21.68s7.78,21.62,20.55,21.62,20.57-10,20.57-21.62S716.14,1032.21,703.36,1032.21Z"/><path class="f2bf52bf-05f8-480c-9433-d8d3042101ae" d="M777.89,1037.05a11.93,11.93,0,0,0-10.25-5c-4.91,0-10.6,2.94-10.6,9.33s5.27,7.93,10.82,9.75c7,2.32,14.73,4.56,14.73,14.53S774.24,1080,766.38,1080c-6,0-12.07-2.46-15.65-7.37l4.35-3.23a13.21,13.21,0,0,0,11.37,6.25c5.12,0,11-3.23,11-9.62,0-7-5.82-8.7-12.14-10.67-6.6-2-13.33-4.91-13.33-13.89,0-9.61,8.56-13.68,15.86-13.68,6.66,0,11.64,2.81,14,6Z"/><polygon class="f2bf52bf-05f8-480c-9433-d8d3042101ae" points="255.28 177.42 255.28 343.94 255.28 547.24 258.56 549.87 258.56 549.87 258.56 549.87 273.26 561.61 273.26 561.61 281.95 568.55 281.95 568.55 291.95 576.54 291.95 576.59 294.43 578.52 334.86 610.83 432.7 691.94 432.7 691.94 435.26 689.82 435.26 2.56 432.7 0 255.28 177.42"/><polygon class="f2bf52bf-05f8-480c-9433-d8d3042101ae" points="580.66 269.08 575.26 274.49 575.26 139.77 569.47 134 569.47 280.27 563.53 286.21 563.53 128.08 557.15 121.72 557.15 292.6 550.57 299.17 550.57 115.17 543.5 108.12 543.5 306.24 536.19 313.55 536.19 100.83 528.31 92.98 528.31 321.44 520.14 329.61 520.14 84.83 511.29 76.02 511.29 338.45 502.1 347.65 502.1 66.86 492.1 56.9 492.1 357.64 481.68 368.07 481.68 46.51 470.3 35.17 470.3 379.45 458.37 391.37 458.37 23.28 445.3 10.26 445.3 681.67 458.37 670.76 458.37 528.71 470.3 538.6 470.3 660.8 481.68 651.3 481.68 548.03 492.1 556.67 492.1 642.59 502.1 634.25 502.1 564.96 511.29 572.58 511.29 626.57 520.14 619.18 520.14 579.91 528.31 586.68 528.31 612.36 536.19 605.78 536.19 593.22 543.5 599.28 543.5 599.67 543.74 599.48 583.13 632.13 583.13 632.12 585.9 629.82 585.9 564.27 585.93 564.24 585.93 150.4 580.66 145.15 580.66 269.08"/><polygon class="f2bf52bf-05f8-480c-9433-d8d3042101ae" points="593.65 623.45 605 613.91 605 290.33 593.65 277.08 593.65 623.45"/><polygon class="f2bf52bf-05f8-480c-9433-d8d3042101ae" points="615.35 605.48 625.23 597.35 625.23 312.29 615.35 301.14 615.35 605.48"/><polygon class="f2bf52bf-05f8-480c-9433-d8d3042101ae" points="634.28 589.72 642.95 582.38 642.95 330.23 634.28 319.1 634.28 589.72"/><polygon class="f2bf52bf-05f8-480c-9433-d8d3042101ae" points="650.93 575.74 658.61 569.09 658.61 344.9 650.93 335.26 650.93 575.74"/><polygon class="f2bf52bf-05f8-480c-9433-d8d3042101ae" points="665.7 563.74 672.55 557.56 672.55 356.57 665.7 349.1 665.7 563.74"/><polygon class="f2bf52bf-05f8-480c-9433-d8d3042101ae" points="678.89 553.53 685.03 547.18 685.03 369.81 678.89 361.38 678.89 553.53"/><polygon class="f2bf52bf-05f8-480c-9433-d8d3042101ae" points="690.74 543.22 696.27 537.96 696.27 381.9 690.74 373.28 690.74 543.22"/><polygon class="f2bf52bf-05f8-480c-9433-d8d3042101ae" points="701.43 534.09 706.46 530.33 706.46 389.24 701.43 384.93 701.43 534.09"/><polygon class="f2bf52bf-05f8-480c-9433-d8d3042101ae" points="711.15 394.5 711.15 526.06 715.72 522 715.72 399.25 711.15 394.5"/><polygon class="f2bf52bf-05f8-480c-9433-d8d3042101ae" points="244.63 539.74 251.47 545.32 251.47 313.91 244.63 320.09 244.63 539.74"/><polygon class="f2bf52bf-05f8-480c-9433-d8d3042101ae" points="232.14 530.68 238.28 535.56 238.28 324.21 232.14 330.55 232.14 530.68"/><polygon class="f2bf52bf-05f8-480c-9433-d8d3042101ae" points="220.9 522.29 226.44 526.91 226.44 334.44 220.9 339.69 220.9 522.29"/><polygon class="f2bf52bf-05f8-480c-9433-d8d3042101ae" points="210.72 514.16 215.74 518.8 215.74 343.56 210.72 347.32 210.72 514.16"/><polygon class="f2bf52bf-05f8-480c-9433-d8d3042101ae" points="201.45 506.83 206.03 511.01 206.03 351.59 201.45 355.65 201.45 506.83"/></g></g></svg>